<svg id="svg" version="1.1" width="400" height="437.09677419354836" viewBox="0 0 400 437.09677419354836" xmlns="http://www.w3.org/2000/svg" xmlns:xlink="http://www.w3.org/1999/xlink"><g id="svgg"><path id="path0" d="M189.300 37.206 C 188.805 37.408,188.400 37.625,188.401 37.687 C 188.401 37.749,194.296 37.812,201.501 37.826 C 211.812 37.846,215.622 38.002,219.400 38.556 C 222.040 38.943,225.370 39.429,226.800 39.635 C 228.230 39.842,230.120 40.118,231.000 40.249 C 232.117 40.415,232.479 40.359,232.200 40.064 C 231.486 39.310,226.973 38.631,215.600 37.569 C 209.507 36.999,190.447 36.736,189.300 37.206 M180.400 38.026 C 179.980 38.316,180.998 38.359,183.800 38.172 C 186.000 38.025,187.875 37.836,187.967 37.752 C 188.368 37.386,180.939 37.654,180.400 38.026 M174.412 38.784 C 173.416 39.414,174.089 39.467,176.800 38.972 L 179.400 38.498 177.200 38.455 C 175.990 38.431,174.735 38.580,174.412 38.784 M169.200 39.686 C 167.598 40.384,169.158 40.516,171.007 39.840 C 172.540 39.278,172.555 39.256,171.400 39.254 C 170.740 39.252,169.750 39.447,169.200 39.686 M163.800 40.800 C 163.502 41.283,165.077 41.283,166.200 40.800 C 166.845 40.523,166.713 40.451,165.524 40.428 C 164.712 40.413,163.936 40.580,163.800 40.800 M233.329 40.663 C 233.474 40.807,234.404 41.077,235.396 41.263 C 241.125 42.334,250.682 44.950,252.895 46.054 C 253.277 46.244,253.941 46.400,254.371 46.400 C 254.801 46.400,255.264 46.580,255.400 46.800 C 255.536 47.020,256.076 47.200,256.600 47.200 C 257.124 47.200,257.664 47.380,257.800 47.600 C 257.936 47.820,258.472 48.000,258.990 48.000 C 259.509 48.000,259.993 48.143,260.067 48.319 C 260.140 48.494,261.730 49.236,263.600 49.966 C 320.848 72.334,364.271 128.346,373.557 191.800 C 375.151 202.696,375.373 206.069,375.387 219.600 C 375.400 232.700,375.262 234.977,373.784 246.056 C 365.559 307.716,326.481 363.119,271.956 390.422 C 190.357 431.281,94.307 397.232,47.351 310.800 C 43.504 303.719,43.265 303.226,39.201 294.000 C 37.718 290.632,33.117 277.351,31.740 272.462 C 31.347 271.065,30.953 270.140,30.865 270.405 C 30.695 270.915,31.615 274.742,32.788 278.400 C 33.176 279.610,33.729 281.410,34.018 282.400 C 34.308 283.390,34.666 284.380,34.814 284.600 C 34.962 284.820,35.329 285.855,35.629 286.900 C 35.929 287.945,36.315 288.800,36.487 288.800 C 36.659 288.800,36.800 289.149,36.800 289.576 C 36.800 290.003,36.980 290.464,37.200 290.600 C 37.420 290.736,37.600 291.276,37.600 291.800 C 37.600 292.324,37.780 292.864,38.000 293.000 C 38.220 293.136,38.400 293.597,38.400 294.024 C 38.400 294.451,38.580 294.800,38.800 294.800 C 39.020 294.800,39.200 295.162,39.200 295.605 C 39.200 296.048,39.374 296.723,39.586 297.105 C 39.798 297.487,41.593 301.130,43.575 305.200 C 47.528 313.317,48.646 315.393,49.700 316.569 C 50.085 316.999,50.400 317.677,50.400 318.075 C 50.400 318.474,50.580 318.800,50.800 318.800 C 51.020 318.800,51.200 319.036,51.200 319.325 C 51.200 319.613,51.560 320.236,52.000 320.708 C 52.440 321.180,52.800 321.778,52.800 322.036 C 52.800 322.295,53.116 322.797,53.503 323.153 C 53.889 323.509,54.474 324.337,54.803 324.994 C 55.131 325.651,55.722 326.567,56.115 327.029 C 56.963 328.024,58.326 330.314,58.658 331.300 C 58.787 331.685,59.052 332.000,59.247 332.000 C 59.441 332.000,59.600 332.270,59.600 332.600 C 59.600 332.930,59.780 333.200,60.000 333.200 C 60.220 333.200,60.400 333.470,60.400 333.800 C 60.400 334.130,60.541 334.400,60.714 334.400 C 60.886 334.400,61.333 334.918,61.707 335.551 C 62.081 336.184,62.885 337.246,63.494 337.911 C 65.073 339.636,66.000 340.779,66.000 341.000 C 66.000 341.221,67.045 342.525,68.204 343.750 C 68.646 344.218,69.416 345.140,69.915 345.800 C 72.262 348.903,86.283 363.296,88.459 364.836 C 89.955 365.895,91.631 367.297,93.196 368.800 C 93.770 369.350,95.040 370.423,96.019 371.185 C 96.999 371.947,97.860 372.712,97.933 372.885 C 98.007 373.058,98.277 373.200,98.533 373.200 C 98.958 373.201,99.440 373.562,102.327 376.045 C 102.837 376.483,103.692 377.041,104.227 377.285 C 104.762 377.529,105.200 377.880,105.200 378.064 C 105.200 378.249,105.388 378.400,105.617 378.400 C 105.846 378.400,106.420 378.760,106.892 379.200 C 107.364 379.640,107.987 380.000,108.275 380.000 C 108.564 380.000,108.800 380.180,108.800 380.400 C 108.800 380.620,109.078 380.800,109.418 380.800 C 109.758 380.800,110.470 381.205,110.999 381.700 C 112.699 383.290,113.154 383.600,113.783 383.600 C 114.122 383.600,114.400 383.751,114.400 383.936 C 114.400 384.310,116.423 385.381,116.911 385.266 C 117.082 385.226,117.327 385.464,117.454 385.796 C 117.581 386.128,117.838 386.400,118.025 386.400 C 118.212 386.400,119.318 386.963,120.482 387.651 C 123.984 389.719,132.456 394.000,133.048 394.000 C 133.352 394.000,133.600 394.180,133.600 394.400 C 133.600 394.620,133.949 394.800,134.376 394.800 C 134.803 394.800,135.264 394.980,135.400 395.200 C 135.536 395.420,135.921 395.600,136.255 395.600 C 136.589 395.600,138.153 396.211,139.731 396.958 C 141.309 397.705,143.320 398.537,144.200 398.807 C 145.080 399.077,146.113 399.456,146.495 399.649 C 146.877 399.842,147.541 400.000,147.971 400.000 C 148.401 400.000,148.864 400.180,149.000 400.400 C 149.136 400.620,149.676 400.800,150.200 400.800 C 150.724 400.800,151.264 400.980,151.400 401.200 C 151.536 401.420,152.166 401.600,152.800 401.600 C 153.434 401.600,154.064 401.780,154.200 402.000 C 154.336 402.220,154.977 402.400,155.624 402.400 C 156.271 402.400,156.800 402.580,156.800 402.800 C 156.800 403.020,157.610 403.200,158.600 403.200 C 159.590 403.200,160.400 403.380,160.400 403.600 C 160.400 403.820,161.043 404.000,161.829 404.000 C 162.614 404.000,163.527 404.270,163.857 404.600 C 164.187 404.930,165.154 405.200,166.005 405.200 C 166.856 405.200,167.664 405.380,167.800 405.600 C 167.936 405.820,169.016 406.000,170.200 406.000 C 171.384 406.000,172.464 406.180,172.600 406.400 C 172.736 406.620,173.906 406.800,175.200 406.800 C 176.494 406.800,177.664 406.980,177.800 407.200 C 177.936 407.420,179.531 407.600,181.344 407.600 C 183.157 407.600,184.811 407.769,185.020 407.975 C 185.729 408.674,206.293 409.467,206.940 408.820 C 207.181 408.579,209.188 408.400,211.656 408.400 C 214.089 408.400,216.060 408.226,216.200 408.000 C 216.336 407.780,217.956 407.600,219.800 407.600 C 221.644 407.600,223.264 407.420,223.400 407.200 C 223.536 406.980,224.796 406.800,226.200 406.800 C 227.604 406.800,228.864 406.620,229.000 406.400 C 229.136 406.180,230.036 406.000,231.000 406.000 C 231.964 406.000,232.864 405.820,233.000 405.600 C 233.136 405.380,233.832 405.200,234.547 405.200 C 235.262 405.200,236.196 404.936,236.624 404.613 C 237.051 404.290,238.075 404.020,238.900 404.013 C 239.725 404.006,240.400 403.820,240.400 403.600 C 240.400 403.380,241.109 403.200,241.976 403.200 C 242.843 403.200,243.664 403.020,243.800 402.800 C 243.936 402.580,244.656 402.400,245.400 402.400 C 246.144 402.400,246.864 402.220,247.000 402.000 C 247.136 401.780,247.676 401.600,248.200 401.600 C 248.724 401.600,249.264 401.420,249.400 401.200 C 249.536 400.980,250.076 400.800,250.600 400.800 C 251.124 400.800,251.664 400.620,251.800 400.400 C 251.936 400.180,252.476 400.000,253.000 400.000 C 253.524 400.000,254.064 399.820,254.200 399.600 C 254.336 399.380,254.876 399.200,255.400 399.200 C 255.924 399.200,256.464 399.020,256.600 398.800 C 256.736 398.580,257.187 398.400,257.602 398.400 C 258.018 398.400,259.204 397.950,260.238 397.400 C 261.273 396.850,262.362 396.400,262.660 396.400 C 262.957 396.400,263.200 396.220,263.200 396.000 C 263.200 395.780,263.555 395.600,263.988 395.600 C 264.421 395.600,265.417 395.240,266.200 394.800 C 266.983 394.360,267.867 394.000,268.163 394.000 C 268.460 394.000,268.921 393.736,269.189 393.413 C 269.457 393.090,269.794 392.858,269.938 392.898 C 270.082 392.937,270.581 392.758,271.047 392.499 C 271.513 392.240,272.008 392.142,272.147 392.281 C 272.286 392.420,272.400 392.323,272.400 392.067 C 272.400 391.810,272.724 391.600,273.120 391.600 C 273.516 391.600,274.011 391.440,274.220 391.245 C 274.429 391.050,275.860 390.210,277.400 389.379 C 281.520 387.153,286.181 384.312,286.333 383.932 C 286.407 383.749,286.703 383.600,286.991 383.600 C 287.280 383.600,287.940 383.153,288.458 382.607 C 288.976 382.061,289.625 381.611,289.900 381.607 C 290.175 381.603,290.400 381.420,290.400 381.200 C 290.400 380.980,290.760 380.800,291.200 380.800 C 291.640 380.800,292.000 380.620,292.000 380.400 C 292.000 380.180,292.230 380.000,292.512 380.000 C 292.793 380.000,293.283 379.640,293.600 379.200 C 293.917 378.760,294.457 378.400,294.800 378.400 C 295.143 378.400,295.683 378.040,296.000 377.600 C 296.317 377.160,296.820 376.800,297.117 376.800 C 297.762 376.800,298.800 375.831,298.800 375.229 C 298.800 374.993,299.160 374.800,299.600 374.800 C 300.040 374.800,300.400 374.659,300.400 374.486 C 300.400 374.314,300.933 373.857,301.585 373.472 C 302.237 373.087,303.007 372.553,303.295 372.286 C 303.584 372.019,304.625 371.175,305.610 370.411 C 306.594 369.647,307.635 368.837,307.922 368.611 C 308.209 368.385,309.058 367.615,309.808 366.900 C 310.559 366.185,311.328 365.600,311.516 365.600 C 311.993 365.600,316.400 361.253,316.400 360.783 C 316.400 360.572,316.579 360.400,316.799 360.400 C 317.383 360.400,328.726 348.647,330.888 345.800 C 331.390 345.140,332.295 344.078,332.900 343.441 C 333.505 342.803,334.000 342.078,334.000 341.829 C 334.000 341.580,334.360 341.117,334.800 340.800 C 335.240 340.483,335.600 340.081,335.600 339.908 C 335.600 339.735,336.140 339.028,336.800 338.337 C 337.460 337.646,338.000 336.926,338.000 336.737 C 338.000 336.548,338.540 335.828,339.200 335.137 C 339.860 334.446,340.400 333.653,340.400 333.374 C 340.400 333.095,340.535 332.807,340.700 332.733 C 341.114 332.549,342.529 330.486,343.397 328.800 C 343.794 328.030,344.408 327.130,344.762 326.800 C 345.116 326.470,345.673 325.660,346.000 325.000 C 346.327 324.340,346.911 323.509,347.297 323.153 C 347.684 322.797,348.000 322.212,348.000 321.853 C 348.000 321.494,348.135 321.199,348.300 321.197 C 348.465 321.195,348.795 320.790,349.033 320.297 C 349.841 318.623,351.701 315.403,352.209 314.800 C 352.730 314.180,356.494 306.772,359.322 300.800 C 360.208 298.930,361.083 297.087,361.266 296.705 C 361.450 296.323,361.600 295.738,361.600 295.405 C 361.600 295.072,361.810 294.800,362.067 294.800 C 362.323 294.800,362.418 294.685,362.277 294.544 C 362.136 294.403,362.312 293.728,362.668 293.044 C 363.888 290.696,364.000 290.409,364.000 289.629 C 364.000 289.199,364.180 288.736,364.400 288.600 C 364.620 288.464,364.800 287.823,364.800 287.176 C 364.800 286.529,364.980 286.000,365.200 286.000 C 365.420 286.000,365.600 285.651,365.600 285.224 C 365.600 284.797,365.780 284.336,366.000 284.200 C 366.220 284.064,366.400 283.601,366.400 283.171 C 366.400 282.741,366.564 282.077,366.764 281.695 C 367.362 280.556,369.200 274.221,369.200 273.300 C 369.200 272.831,369.380 272.336,369.600 272.200 C 369.820 272.064,370.000 271.254,370.000 270.400 C 370.000 269.546,370.180 268.736,370.400 268.600 C 370.620 268.464,370.800 267.733,370.800 266.976 C 370.800 266.219,370.980 265.600,371.200 265.600 C 371.420 265.600,371.600 265.071,371.600 264.424 C 371.600 263.777,371.780 263.136,372.000 263.000 C 372.220 262.864,372.400 262.054,372.400 261.200 C 372.400 260.346,372.580 259.536,372.800 259.400 C 373.020 259.264,373.200 258.184,373.200 257.000 C 373.200 255.816,373.380 254.736,373.600 254.600 C 373.820 254.464,374.000 253.294,374.000 252.000 C 374.000 250.706,374.180 249.536,374.400 249.400 C 374.620 249.264,374.800 248.274,374.800 247.200 C 374.800 246.126,374.980 245.136,375.200 245.000 C 375.424 244.862,375.600 242.987,375.600 240.750 C 375.600 238.549,375.794 236.385,376.031 235.942 C 376.622 234.838,376.613 202.853,376.021 202.261 C 375.790 202.030,375.600 200.447,375.600 198.744 C 375.600 197.041,375.420 195.536,375.200 195.400 C 374.980 195.264,374.800 194.004,374.800 192.600 C 374.800 191.196,374.620 189.936,374.400 189.800 C 374.180 189.664,374.000 188.483,374.000 187.176 C 374.000 185.859,373.822 184.800,373.600 184.800 C 373.380 184.800,373.200 183.911,373.200 182.824 C 373.200 181.737,373.020 180.736,372.800 180.600 C 372.580 180.464,372.400 179.643,372.400 178.776 C 372.400 177.909,372.220 177.200,372.000 177.200 C 371.780 177.200,371.600 176.581,371.600 175.824 C 371.600 175.067,371.420 174.336,371.200 174.200 C 370.980 174.064,370.800 173.333,370.800 172.576 C 370.800 171.819,370.620 171.200,370.400 171.200 C 370.180 171.200,370.000 170.581,370.000 169.824 C 370.000 169.067,369.820 168.336,369.600 168.200 C 369.380 168.064,369.200 167.463,369.200 166.865 C 369.200 165.366,367.242 159.238,365.953 156.705 C 365.759 156.323,365.600 155.736,365.600 155.400 C 365.600 154.807,365.434 154.384,364.462 152.505 C 364.208 152.013,364.000 151.355,364.000 151.043 C 364.000 150.731,363.614 149.694,363.143 148.738 C 362.672 147.782,362.110 146.550,361.894 146.000 C 361.678 145.450,360.984 143.975,360.351 142.722 C 359.718 141.469,359.200 140.164,359.200 139.822 C 359.200 139.480,359.020 139.200,358.800 139.200 C 358.580 139.200,358.400 138.840,358.400 138.400 C 358.400 137.960,358.220 137.600,358.000 137.600 C 357.780 137.600,357.600 137.240,357.600 136.800 C 357.600 136.360,357.420 136.000,357.200 136.000 C 356.980 136.000,356.800 135.655,356.800 135.233 C 356.800 134.812,356.665 134.407,356.500 134.333 C 356.335 134.260,355.688 133.120,355.062 131.800 C 354.436 130.480,353.131 128.191,352.162 126.713 C 351.193 125.235,350.400 123.840,350.400 123.613 C 350.400 123.386,350.220 123.200,350.000 123.200 C 349.780 123.200,349.600 122.880,349.600 122.488 C 349.600 122.097,349.240 121.517,348.800 121.200 C 348.360 120.883,348.000 120.303,348.000 119.912 C 348.000 119.520,347.820 119.200,347.600 119.200 C 347.380 119.200,347.200 118.970,347.200 118.688 C 347.200 118.407,346.840 117.917,346.400 117.600 C 345.960 117.283,345.600 116.769,345.600 116.459 C 345.600 116.148,345.266 115.603,344.857 115.247 C 344.449 114.891,343.746 113.880,343.296 113.000 C 342.846 112.120,342.010 110.860,341.439 110.200 C 340.868 109.540,340.401 108.863,340.400 108.697 C 340.400 108.436,339.217 106.967,337.781 105.444 C 337.551 105.200,336.749 104.100,336.000 103.000 C 335.251 101.900,333.992 100.370,333.203 99.600 C 332.413 98.830,331.469 97.768,331.103 97.239 C 328.532 93.518,312.795 78.000,311.593 78.000 C 311.377 78.000,311.200 77.820,311.200 77.600 C 311.200 77.380,311.014 77.200,310.787 77.200 C 310.559 77.200,309.860 76.705,309.233 76.100 C 307.077 74.018,305.585 72.800,305.193 72.800 C 304.977 72.800,304.800 72.620,304.800 72.400 C 304.800 72.180,304.570 72.000,304.288 72.000 C 304.007 72.000,303.517 71.640,303.200 71.200 C 302.883 70.760,302.385 70.400,302.094 70.400 C 301.802 70.400,301.130 69.995,300.601 69.500 C 298.936 67.943,298.449 67.600,297.905 67.600 C 297.614 67.600,297.117 67.240,296.800 66.800 C 296.483 66.360,295.986 66.000,295.695 66.000 C 295.404 66.000,294.780 65.640,294.308 65.200 C 293.836 64.760,293.213 64.400,292.925 64.400 C 292.636 64.400,292.400 64.220,292.400 64.000 C 292.400 63.780,292.130 63.600,291.800 63.600 C 291.470 63.600,291.200 63.420,291.200 63.200 C 291.200 62.980,290.883 62.800,290.495 62.800 C 290.107 62.800,289.477 62.384,289.095 61.875 C 288.713 61.366,287.770 60.702,287.000 60.400 C 286.230 60.098,285.600 59.704,285.600 59.525 C 285.600 59.346,285.240 59.200,284.800 59.200 C 284.360 59.200,284.000 59.020,284.000 58.800 C 284.000 58.580,283.640 58.400,283.200 58.400 C 282.760 58.400,282.400 58.220,282.400 58.000 C 282.400 57.780,282.040 57.600,281.600 57.600 C 281.160 57.600,280.800 57.420,280.800 57.200 C 280.800 56.980,280.530 56.800,280.200 56.800 C 279.870 56.800,279.600 56.620,279.600 56.400 C 279.600 56.180,279.240 56.000,278.800 56.000 C 278.360 56.000,278.000 55.820,278.000 55.600 C 278.000 55.380,277.640 55.200,277.200 55.200 C 276.760 55.200,276.400 55.055,276.400 54.877 C 276.400 54.699,275.635 54.229,274.700 53.832 C 273.765 53.435,271.920 52.607,270.600 51.992 C 265.552 49.639,263.557 48.800,263.012 48.800 C 262.701 48.800,262.336 48.620,262.200 48.400 C 262.064 48.180,261.524 48.000,261.000 48.000 C 260.476 48.000,259.936 47.820,259.800 47.600 C 259.664 47.380,259.149 47.200,258.656 47.200 C 258.163 47.200,257.576 47.016,257.351 46.791 C 257.125 46.565,256.518 46.300,256.000 46.200 C 255.482 46.100,254.875 45.835,254.649 45.609 C 254.424 45.384,253.747 45.200,253.144 45.200 C 252.541 45.200,251.936 45.020,251.800 44.800 C 251.664 44.580,251.034 44.400,250.400 44.400 C 249.766 44.400,249.136 44.220,249.000 44.000 C 248.864 43.780,248.223 43.600,247.576 43.600 C 246.929 43.600,246.400 43.420,246.400 43.200 C 246.400 42.980,245.781 42.800,245.024 42.800 C 244.267 42.800,243.536 42.620,243.400 42.400 C 243.264 42.180,242.544 42.000,241.800 42.000 C 241.056 42.000,240.336 41.820,240.200 41.600 C 240.064 41.380,239.254 41.200,238.400 41.200 C 237.546 41.200,236.736 41.020,236.600 40.800 C 236.464 40.580,235.613 40.400,234.710 40.400 C 233.806 40.400,233.185 40.518,233.329 40.663 M160.400 41.600 C 160.400 42.078,161.488 42.078,162.600 41.600 C 163.242 41.324,163.103 41.251,161.900 41.228 C 161.075 41.213,160.400 41.380,160.400 41.600 M157.000 42.400 C 156.683 42.913,158.407 42.913,159.200 42.400 C 159.657 42.105,159.495 42.011,158.524 42.006 C 157.822 42.003,157.136 42.180,157.000 42.400 M154.400 43.200 C 154.400 43.706,155.217 43.706,156.000 43.200 C 156.468 42.898,156.357 42.811,155.500 42.806 C 154.895 42.803,154.400 42.980,154.400 43.200 M151.400 44.000 C 151.264 44.220,151.513 44.400,151.953 44.400 C 152.393 44.400,152.864 44.220,153.000 44.000 C 153.136 43.780,152.887 43.600,152.447 43.600 C 152.007 43.600,151.536 43.780,151.400 44.000 M148.600 44.800 C 148.284 45.311,149.610 45.311,150.400 44.800 C 150.869 44.497,150.766 44.411,149.924 44.406 C 149.332 44.403,148.736 44.580,148.600 44.800 M146.200 45.600 C 145.885 46.109,146.812 46.109,147.600 45.600 C 148.088 45.285,148.036 45.211,147.324 45.206 C 146.842 45.203,146.336 45.380,146.200 45.600 M143.776 46.587 C 143.349 46.910,143.191 47.180,143.424 47.187 C 143.656 47.194,144.196 46.936,144.624 46.613 C 145.051 46.290,145.209 46.020,144.976 46.013 C 144.744 46.006,144.204 46.264,143.776 46.587 M138.600 48.400 C 138.464 48.620,138.623 48.800,138.953 48.800 C 139.283 48.800,139.664 48.620,139.800 48.400 C 139.936 48.180,139.777 48.000,139.447 48.000 C 139.117 48.000,138.736 48.180,138.600 48.400 M130.000 51.926 C 129.230 52.297,128.540 52.735,128.467 52.900 C 128.393 53.065,127.988 53.200,127.567 53.200 C 127.145 53.200,126.800 53.395,126.800 53.633 C 126.800 53.872,126.948 54.007,127.129 53.933 C 129.601 52.932,131.988 51.737,131.993 51.500 C 132.003 51.072,131.590 51.160,130.000 51.926 M124.749 54.665 C 124.247 55.274,124.285 55.287,125.200 54.811 C 126.541 54.114,126.642 54.000,125.916 54.000 C 125.576 54.000,125.051 54.299,124.749 54.665 M122.800 55.600 C 122.800 55.820,122.440 56.000,122.000 56.000 C 121.560 56.000,121.200 56.171,121.200 56.379 C 121.200 56.609,121.672 56.594,122.401 56.340 C 123.763 55.865,124.360 55.200,123.424 55.200 C 123.081 55.200,122.800 55.380,122.800 55.600 M119.600 57.200 C 119.600 57.420,119.330 57.600,119.000 57.600 C 118.670 57.600,118.400 57.785,118.400 58.010 C 118.400 58.244,118.917 58.153,119.600 57.800 C 120.924 57.115,121.113 56.800,120.200 56.800 C 119.870 56.800,119.600 56.980,119.600 57.200 M116.800 58.800 C 116.800 59.020,116.440 59.200,116.000 59.200 C 115.560 59.200,115.200 59.336,115.200 59.502 C 115.200 59.669,114.682 60.034,114.048 60.315 C 113.414 60.595,112.379 61.293,111.748 61.864 L 110.600 62.904 112.000 62.091 C 118.738 58.178,118.409 58.400,117.467 58.400 C 117.100 58.400,116.800 58.580,116.800 58.800 M108.000 64.000 C 108.000 64.220,107.812 64.400,107.583 64.400 C 107.354 64.400,106.780 64.760,106.308 65.200 C 105.836 65.640,105.213 66.000,104.925 66.000 C 104.636 66.000,104.400 66.180,104.400 66.400 C 104.400 66.620,104.080 66.800,103.688 66.800 C 103.297 66.800,102.717 67.160,102.400 67.600 C 102.083 68.040,101.633 68.400,101.401 68.400 C 101.168 68.400,100.670 68.760,100.293 69.200 C 99.273 70.391,99.482 70.275,104.625 66.800 C 107.229 65.040,109.054 63.600,108.680 63.600 C 108.306 63.600,108.000 63.780,108.000 64.000 M97.660 71.042 C 96.845 71.963,97.282 72.045,98.406 71.182 C 99.056 70.682,99.192 70.420,98.800 70.424 C 98.470 70.428,97.957 70.705,97.660 71.042 M96.000 72.400 C 96.000 72.620,95.745 72.800,95.433 72.800 C 95.122 72.800,94.807 72.935,94.733 73.100 C 94.660 73.265,93.913 73.913,93.074 74.540 C 92.234 75.168,91.638 75.772,91.750 75.883 C 91.861 75.994,92.638 75.528,93.476 74.847 C 94.314 74.167,95.450 73.253,96.000 72.818 C 96.550 72.383,96.775 72.021,96.500 72.013 C 96.225 72.006,96.000 72.180,96.000 72.400 M89.438 77.400 C 88.799 77.950,88.439 78.399,88.638 78.398 C 89.149 78.395,91.487 76.432,91.000 76.415 C 90.780 76.407,90.077 76.851,89.438 77.400 M85.528 80.826 C 84.358 81.941,83.693 82.706,84.052 82.526 C 85.062 82.021,88.534 78.800,88.069 78.800 C 87.842 78.800,86.698 79.712,85.528 80.826 M73.856 92.017 C 70.499 95.587,68.942 97.600,69.539 97.600 C 69.756 97.600,69.993 97.433,70.067 97.228 C 70.140 97.023,71.640 95.287,73.400 93.371 C 76.457 90.042,77.452 88.800,77.061 88.800 C 76.963 88.800,75.521 90.248,73.856 92.017 M66.000 101.058 C 66.000 101.273,65.680 101.798,65.289 102.225 C 64.898 102.651,64.161 103.630,63.651 104.400 L 62.724 105.800 63.979 104.400 C 65.770 102.402,66.547 101.214,66.254 100.921 C 66.114 100.781,66.000 100.843,66.000 101.058 M62.000 106.255 C 62.000 106.469,61.378 107.323,60.617 108.154 C 59.856 108.984,59.124 110.009,58.990 110.432 C 58.856 110.854,58.607 111.200,58.437 111.200 C 58.266 111.200,57.623 112.145,57.008 113.300 C 55.560 116.015,56.018 115.509,59.568 110.472 C 61.168 108.201,62.369 106.236,62.238 106.105 C 62.107 105.974,62.000 106.041,62.000 106.255 M54.900 116.223 C 54.625 116.522,54.400 116.994,54.400 117.272 C 54.400 117.550,54.688 117.366,55.041 116.863 C 55.762 115.833,55.665 115.393,54.900 116.223 M53.300 118.623 C 53.025 118.922,52.800 119.394,52.800 119.672 C 52.800 119.950,53.088 119.766,53.441 119.263 C 54.162 118.233,54.065 117.793,53.300 118.623 M50.071 123.854 C 49.780 124.170,49.615 124.646,49.704 124.913 C 49.798 125.195,50.075 125.007,50.365 124.465 C 50.958 123.357,50.811 123.051,50.071 123.854 M48.377 126.700 C 48.069 127.305,47.407 128.475,46.904 129.300 C 46.401 130.125,46.133 130.800,46.309 130.800 C 46.484 130.800,46.961 130.215,47.370 129.500 C 47.778 128.785,48.461 127.615,48.888 126.900 C 49.316 126.185,49.501 125.600,49.300 125.600 C 49.099 125.600,48.684 126.095,48.377 126.700 M121.869 140.265 C 121.721 140.412,121.600 177.493,121.600 222.667 L 121.600 304.800 125.300 304.792 C 154.393 304.731,181.497 284.452,191.853 255.000 L 193.400 250.600 193.400 195.400 L 193.400 140.200 157.769 140.098 C 138.172 140.042,122.017 140.117,121.869 140.265 M199.600 221.348 L 199.600 302.800 201.358 302.800 C 233.125 302.800,263.207 280.882,273.771 250.040 C 291.674 197.774,257.216 143.746,203.700 140.171 L 199.600 139.897 199.600 221.348 M36.800 150.376 C 36.800 150.803,36.620 151.264,36.400 151.400 C 36.180 151.536,36.013 152.042,36.030 152.524 C 36.052 153.191,36.236 153.018,36.800 151.800 C 37.676 149.907,37.732 149.600,37.200 149.600 C 36.980 149.600,36.800 149.949,36.800 150.376 M35.373 154.243 C 35.238 154.659,34.973 155.360,34.785 155.800 C 33.648 158.459,30.594 168.728,30.862 168.995 C 30.966 169.099,31.464 167.793,31.968 166.092 C 32.472 164.392,33.578 160.937,34.425 158.416 C 35.272 155.894,35.887 153.754,35.792 153.658 C 35.697 153.563,35.508 153.826,35.373 154.243 M30.267 170.667 C 30.120 170.813,30.011 171.308,30.025 171.767 C 30.049 172.533,30.082 172.523,30.434 171.642 C 30.826 170.663,30.744 170.189,30.267 170.667 M29.228 174.700 C 29.253 175.675,29.295 175.709,29.600 175.000 C 30.069 173.907,30.069 173.600,29.600 173.600 C 29.380 173.600,29.213 174.095,29.228 174.700 M28.667 177.067 C 28.520 177.213,28.411 177.708,28.425 178.167 C 28.449 178.933,28.482 178.923,28.834 178.042 C 29.226 177.063,29.144 176.589,28.667 177.067 M27.640 181.900 C 27.675 183.239,27.714 183.292,28.000 182.400 C 28.458 180.970,28.458 180.400,28.000 180.400 C 27.780 180.400,27.618 181.075,27.640 181.900 M27.067 184.267 C 26.920 184.413,26.818 185.178,26.840 185.967 L 26.880 187.400 27.246 185.840 C 27.615 184.268,27.559 183.775,27.067 184.267 M26.292 189.042 C 26.131 189.202,26.020 190.158,26.044 191.167 L 26.088 193.000 26.442 191.200 C 26.818 189.287,26.768 188.565,26.292 189.042 M25.200 197.067 C 25.200 199.805,25.404 199.740,25.725 196.900 C 25.864 195.670,25.804 194.800,25.581 194.800 C 25.372 194.800,25.200 195.820,25.200 197.067 M24.673 201.753 C 24.523 202.145,24.425 204.296,24.456 206.533 L 24.513 210.600 24.853 206.200 C 25.202 201.688,25.154 200.501,24.673 201.753 M24.400 233.310 C 24.400 235.504,24.576 237.262,24.810 237.406 C 25.189 237.641,24.931 230.078,24.545 229.633 C 24.465 229.542,24.400 231.196,24.400 233.310 M25.250 242.676 C 25.222 244.258,25.380 245.664,25.600 245.800 C 25.820 245.936,26.000 247.207,26.000 248.624 C 26.000 250.075,26.175 251.200,26.400 251.200 C 26.923 251.200,26.874 250.344,26.016 244.600 L 25.299 239.800 25.250 242.676 M26.847 253.500 C 26.821 254.665,26.978 255.600,27.200 255.600 C 27.652 255.600,27.652 254.377,27.200 252.600 C 26.939 251.574,26.888 251.705,26.847 253.500 M27.640 257.476 C 27.618 258.398,27.780 259.264,28.000 259.400 C 28.466 259.688,28.466 258.256,28.000 256.800 C 27.726 255.946,27.674 256.045,27.640 257.476 M28.440 261.276 C 28.418 262.088,28.580 262.864,28.800 263.000 C 29.263 263.286,29.263 262.245,28.800 260.800 C 28.512 259.902,28.476 259.950,28.440 261.276 M29.228 264.676 C 29.213 265.378,29.380 266.064,29.600 266.200 C 30.080 266.496,30.080 265.316,29.600 264.200 C 29.310 263.526,29.252 263.600,29.228 264.676 M30.028 267.900 C 30.013 268.615,30.180 269.200,30.400 269.200 C 30.875 269.200,30.875 268.505,30.400 267.400 C 30.112 266.730,30.052 266.811,30.028 267.900 " stroke="none" fill="#f4f3eb" fill-rule="evenodd"></path><path id="path1" d="M186.800 39.006 C 179.541 39.515,176.726 39.882,168.064 41.451 C 160.118 42.890,143.926 47.519,138.200 49.989 C 126.922 54.853,123.871 56.323,116.400 60.495 C 112.116 62.888,103.588 68.344,99.982 71.000 C 99.385 71.440,98.019 72.415,96.948 73.167 C 95.877 73.919,94.269 75.179,93.375 75.967 C 92.482 76.755,90.773 78.210,89.578 79.200 C 83.029 84.626,74.447 93.210,68.987 99.797 C 67.894 101.116,66.778 102.431,66.506 102.720 C 66.234 103.009,65.163 104.360,64.125 105.723 C 63.087 107.085,62.129 108.290,61.997 108.400 C 61.561 108.762,54.400 119.083,54.400 119.349 C 54.400 119.492,53.680 120.664,52.800 121.953 C 51.920 123.242,51.200 124.423,51.200 124.576 C 51.200 124.730,50.678 125.615,50.039 126.543 C 48.808 128.333,44.028 137.663,41.097 144.000 C 38.304 150.037,32.773 165.942,31.621 171.247 C 31.401 172.264,31.048 173.548,30.837 174.102 C 30.627 174.655,29.914 177.784,29.253 181.054 C 23.029 211.851,24.372 244.421,33.067 273.600 C 35.032 280.191,38.469 290.145,39.767 293.000 C 40.067 293.660,40.892 295.550,41.599 297.200 C 44.763 304.577,51.020 316.382,55.381 323.200 C 57.830 327.030,64.557 336.622,65.199 337.200 C 65.321 337.310,66.044 338.210,66.805 339.200 C 73.083 347.360,89.808 364.450,94.963 367.972 C 95.423 368.287,97.150 369.650,98.800 371.001 C 104.960 376.044,115.047 382.641,122.800 386.696 C 124.670 387.674,127.460 389.161,129.000 390.000 C 130.540 390.838,132.970 392.003,134.400 392.587 C 135.830 393.172,137.563 393.907,138.252 394.221 C 145.901 397.709,160.518 402.049,171.181 403.996 C 207.545 410.639,245.119 404.588,276.800 386.989 C 278.230 386.194,280.725 384.821,282.344 383.938 C 289.199 380.197,299.607 372.670,308.600 364.949 C 355.047 325.074,379.688 263.270,373.807 201.400 C 372.885 191.702,370.969 180.567,369.025 173.600 C 368.503 171.730,367.946 169.570,367.787 168.800 C 365.977 160.024,356.378 137.105,350.511 127.553 C 349.649 126.149,347.971 123.380,346.782 121.400 C 338.621 107.805,324.401 91.186,311.600 80.283 C 306.247 75.724,306.074 75.582,304.400 74.400 C 302.946 73.373,301.836 72.503,301.055 71.776 C 300.805 71.543,298.350 69.856,295.600 68.027 C 292.850 66.198,290.112 64.364,289.516 63.951 C 288.920 63.538,288.339 63.200,288.226 63.200 C 288.112 63.200,286.170 62.091,283.909 60.736 C 275.629 55.770,265.348 51.187,253.000 46.955 C 233.541 40.286,209.576 37.408,186.800 39.006 M192.615 139.439 C 194.226 139.844,194.245 140.558,194.159 196.200 L 194.074 250.600 192.883 254.200 C 183.811 281.611,161.005 301.172,133.686 304.972 C 128.185 305.737,122.421 305.798,121.474 305.100 C 120.838 304.632,120.801 299.328,120.897 222.412 L 121.000 140.224 121.992 139.729 C 123.029 139.212,190.605 138.935,192.615 139.439 M208.625 139.783 C 227.888 142.348,242.752 149.801,256.234 163.655 C 262.449 170.040,269.161 179.903,271.414 185.961 C 271.708 186.752,272.511 188.749,273.197 190.398 C 275.760 196.551,278.431 207.476,278.967 214.000 C 279.085 215.430,279.281 217.733,279.404 219.118 C 280.114 227.131,277.167 245.186,274.004 252.200 C 273.607 253.080,272.799 254.970,272.208 256.400 C 264.383 275.324,246.286 292.167,226.257 299.169 C 216.445 302.599,201.139 304.797,199.371 303.029 C 198.397 302.054,198.524 140.497,199.500 139.757 C 200.419 139.059,203.254 139.067,208.625 139.783 " stroke="none" fill="#b34b2c" fill-rule="evenodd"></path><path id="path2" d="M194.524 37.899 C 197.783 37.967,203.003 37.966,206.124 37.899 C 209.246 37.831,206.580 37.776,200.200 37.777 C 193.820 37.777,191.266 37.832,194.524 37.899 M181.400 38.400 L 179.000 38.666 181.000 38.693 C 182.100 38.708,183.990 38.584,185.200 38.417 C 188.172 38.006,185.086 37.992,181.400 38.400 M214.600 38.418 C 215.700 38.590,217.320 38.722,218.200 38.712 C 219.751 38.694,219.739 38.684,217.800 38.382 C 216.700 38.210,215.080 38.078,214.200 38.088 C 212.649 38.106,212.661 38.116,214.600 38.418 M175.600 39.200 C 174.250 39.484,174.243 39.495,175.400 39.500 C 176.060 39.503,177.140 39.368,177.800 39.200 C 179.460 38.778,177.607 38.778,175.600 39.200 M221.800 39.200 C 222.460 39.368,223.450 39.505,224.000 39.505 C 224.892 39.505,224.870 39.472,223.800 39.200 C 223.140 39.032,222.150 38.895,221.600 38.895 C 220.708 38.895,220.730 38.928,221.800 39.200 M171.200 39.800 C 169.309 40.528,170.582 40.539,172.600 39.812 C 173.480 39.495,173.840 39.241,173.400 39.248 C 172.960 39.255,171.970 39.503,171.200 39.800 M225.233 39.750 C 225.325 39.832,226.480 40.009,227.800 40.143 C 229.384 40.304,229.928 40.262,229.400 40.021 C 228.644 39.676,224.879 39.431,225.233 39.750 M166.200 40.800 C 165.429 41.131,165.431 41.145,166.276 41.172 C 166.758 41.187,167.264 41.020,167.400 40.800 C 167.692 40.327,167.301 40.327,166.200 40.800 M230.433 40.544 C 230.525 40.624,231.410 40.806,232.400 40.950 C 233.658 41.133,234.019 41.091,233.600 40.812 C 233.060 40.453,230.032 40.197,230.433 40.544 M162.600 41.600 L 161.800 41.944 162.600 41.932 C 163.040 41.926,163.850 41.776,164.400 41.600 L 165.400 41.280 164.400 41.268 C 163.850 41.262,163.040 41.411,162.600 41.600 M234.433 41.347 C 234.525 41.428,235.320 41.614,236.200 41.762 C 237.346 41.954,237.630 41.914,237.200 41.621 C 236.660 41.253,234.032 40.993,234.433 41.347 M239.800 42.609 C 242.419 43.336,243.439 43.323,241.400 42.588 C 240.520 42.271,239.350 42.021,238.800 42.033 C 238.170 42.046,238.541 42.260,239.800 42.609 M156.000 43.200 C 155.236 43.694,156.058 43.694,157.600 43.200 L 158.600 42.880 157.600 42.846 C 157.050 42.827,156.330 42.987,156.000 43.200 M243.800 43.600 C 244.240 43.789,244.960 43.938,245.400 43.932 C 246.043 43.923,246.004 43.857,245.200 43.600 C 243.832 43.162,242.781 43.162,243.800 43.600 M150.200 44.785 C 149.760 44.966,148.590 45.335,147.600 45.603 C 145.741 46.107,143.922 46.855,144.106 47.040 C 144.206 47.139,147.469 46.162,151.000 44.976 C 151.880 44.680,152.240 44.442,151.800 44.446 C 151.360 44.451,150.640 44.603,150.200 44.785 M248.800 45.000 C 250.651 45.713,251.247 45.713,250.000 45.000 C 249.450 44.686,248.640 44.436,248.200 44.445 C 247.676 44.455,247.883 44.647,248.800 45.000 M256.600 47.600 C 257.701 48.073,258.092 48.073,257.800 47.600 C 257.664 47.380,257.158 47.213,256.676 47.228 C 255.831 47.255,255.829 47.269,256.600 47.600 M133.568 50.928 C 133.774 51.134,134.232 51.102,134.661 50.852 C 135.310 50.473,135.266 50.430,134.307 50.497 C 133.671 50.541,133.362 50.722,133.568 50.928 M93.985 74.429 L 92.600 75.658 94.100 74.581 C 95.426 73.630,95.857 73.200,95.485 73.200 C 95.422 73.200,94.747 73.753,93.985 74.429 M88.638 78.600 C 87.999 79.150,87.652 79.600,87.868 79.600 C 88.084 79.600,88.683 79.150,89.200 78.600 C 90.405 77.318,90.129 77.318,88.638 78.600 M314.800 82.224 C 319.649 86.731,324.650 91.733,328.374 95.800 C 330.872 98.529,330.989 98.617,329.164 96.400 C 326.542 93.213,317.090 83.780,313.578 80.846 C 312.083 79.597,312.597 80.176,314.800 82.224 M85.775 81.300 L 84.600 82.600 85.900 81.425 C 87.112 80.330,87.384 80.000,87.075 80.000 C 87.006 80.000,86.421 80.585,85.775 81.300 M80.970 85.342 C 79.471 86.892,79.447 87.431,80.940 86.022 C 81.743 85.263,82.400 84.588,82.400 84.522 C 82.400 84.182,81.708 84.579,80.970 85.342 M77.192 89.010 C 76.914 89.345,76.766 89.700,76.864 89.798 C 76.962 89.896,77.346 89.621,77.717 89.188 C 78.089 88.755,78.236 88.400,78.045 88.400 C 77.854 88.400,77.470 88.674,77.192 89.010 M74.581 92.100 L 73.000 93.800 74.700 92.219 C 75.635 91.349,76.400 90.584,76.400 90.519 C 76.400 90.216,76.052 90.519,74.581 92.100 M331.200 99.325 C 331.200 99.394,331.785 99.979,332.500 100.625 L 333.800 101.800 332.625 100.500 C 331.530 99.288,331.200 99.016,331.200 99.325 M46.666 130.431 C 46.275 130.889,46.025 131.474,46.113 131.731 C 46.200 131.989,46.575 131.615,46.946 130.900 C 47.729 129.391,47.658 129.272,46.666 130.431 M355.683 136.187 C 356.385 137.610,357.025 138.708,357.106 138.628 C 357.285 138.449,354.866 133.600,354.598 133.600 C 354.493 133.600,354.982 134.764,355.683 136.187 M121.700 139.865 C 121.425 139.976,121.225 140.637,121.254 141.333 C 121.302 142.429,121.334 142.465,121.493 141.600 C 121.594 141.050,121.861 140.375,122.087 140.100 C 122.524 139.569,122.488 139.547,121.700 139.865 M190.800 139.756 C 190.800 139.842,191.417 139.985,192.172 140.073 C 192.927 140.161,193.456 140.090,193.348 139.916 C 193.155 139.603,190.800 139.455,190.800 139.756 M204.905 140.287 C 205.514 140.379,206.414 140.377,206.905 140.282 C 207.397 140.187,206.900 140.111,205.800 140.114 C 204.700 140.117,204.297 140.195,204.905 140.287 M216.600 142.000 C 217.040 142.189,217.670 142.344,218.000 142.344 C 218.378 142.344,218.304 142.217,217.800 142.000 C 217.360 141.811,216.730 141.656,216.400 141.656 C 216.022 141.656,216.096 141.783,216.600 142.000 M228.800 145.800 C 229.350 146.114,229.980 146.372,230.200 146.372 C 230.420 146.372,230.150 146.114,229.600 145.800 C 229.050 145.486,228.420 145.228,228.200 145.228 C 227.980 145.228,228.250 145.486,228.800 145.800 M230.833 146.553 C 231.241 146.926,236.000 149.191,236.000 149.012 C 236.000 148.787,231.379 146.400,230.945 146.400 C 230.792 146.400,230.742 146.469,230.833 146.553 M35.800 153.313 C 35.360 153.758,35.244 153.983,35.543 153.811 C 35.957 153.573,36.029 153.724,35.847 154.450 C 35.715 154.974,35.885 154.796,36.224 154.053 C 36.968 152.427,36.861 152.239,35.800 153.313 M363.851 154.774 C 364.227 156.239,365.171 158.286,365.155 157.600 C 365.147 157.270,364.794 156.280,364.371 155.400 C 363.948 154.520,363.714 154.238,363.851 154.774 M368.400 168.548 C 368.400 169.248,370.124 175.610,370.273 175.460 C 370.449 175.285,368.855 168.723,368.566 168.433 C 368.475 168.342,368.400 168.393,368.400 168.548 M370.480 176.600 C 370.480 177.040,370.624 177.850,370.800 178.400 C 371.054 179.192,371.120 179.233,371.120 178.600 C 371.120 178.160,370.976 177.350,370.800 176.800 C 370.546 176.008,370.480 175.967,370.480 176.600 M267.800 180.800 C 268.141 181.460,268.511 182.000,268.621 182.000 C 268.731 182.000,268.541 181.460,268.200 180.800 C 267.859 180.140,267.489 179.600,267.379 179.600 C 267.269 179.600,267.459 180.140,267.800 180.800 M371.287 180.200 C 371.291 180.640,371.432 181.540,371.600 182.200 C 371.874 183.278,371.906 183.298,371.913 182.400 C 371.917 181.850,371.776 180.950,371.600 180.400 C 371.349 179.616,371.281 179.573,371.287 180.200 M27.249 185.800 C 27.216 186.240,27.096 187.050,26.983 187.600 L 26.777 188.600 27.206 187.619 C 27.442 187.079,27.561 186.269,27.472 185.819 C 27.313 185.021,27.307 185.021,27.249 185.800 M270.828 186.600 C 270.828 186.820,271.086 187.450,271.400 188.000 C 271.714 188.550,271.972 188.820,271.972 188.600 C 271.972 188.380,271.714 187.750,271.400 187.200 C 271.086 186.650,270.828 186.380,270.828 186.600 M373.301 191.800 C 373.305 192.680,373.387 192.993,373.483 192.495 C 373.579 191.998,373.575 191.278,373.475 190.895 C 373.375 190.513,373.296 190.920,373.301 191.800 M273.429 193.200 C 273.576 193.750,273.864 194.470,274.067 194.800 C 274.325 195.217,274.357 195.095,274.171 194.400 C 274.024 193.850,273.736 193.130,273.533 192.800 C 273.275 192.383,273.243 192.505,273.429 193.200 M373.874 196.200 C 373.998 197.740,374.166 199.075,374.249 199.167 C 374.527 199.474,374.358 196.617,374.002 195.000 C 373.731 193.770,373.702 194.048,373.874 196.200 M274.456 196.000 C 274.456 196.330,274.611 196.960,274.800 197.400 C 275.017 197.904,275.144 197.978,275.144 197.600 C 275.144 197.270,274.989 196.640,274.800 196.200 C 274.583 195.696,274.456 195.622,274.456 196.000 M25.693 197.200 C 25.693 197.970,25.775 198.285,25.876 197.900 C 25.976 197.515,25.976 196.885,25.876 196.500 C 25.775 196.115,25.693 196.430,25.693 197.200 M275.250 198.600 C 275.231 198.820,275.466 199.900,275.772 201.000 C 276.078 202.100,276.331 202.640,276.333 202.200 C 276.339 201.348,275.308 197.923,275.250 198.600 M374.509 201.200 C 374.509 202.190,374.587 202.595,374.682 202.100 C 374.778 201.605,374.778 200.795,374.682 200.300 C 374.587 199.805,374.509 200.210,374.509 201.200 M374.937 206.600 C 374.939 208.360,375.009 209.030,375.093 208.089 C 375.178 207.149,375.177 205.709,375.091 204.889 C 375.005 204.070,374.936 204.840,374.937 206.600 M24.909 206.000 C 24.909 206.990,24.987 207.395,25.082 206.900 C 25.178 206.405,25.178 205.595,25.082 205.100 C 24.987 204.605,24.909 205.010,24.909 206.000 M24.524 212.600 C 24.526 213.920,24.601 214.412,24.690 213.693 C 24.779 212.974,24.777 211.894,24.686 211.293 C 24.595 210.692,24.522 211.280,24.524 212.600 M375.373 220.000 C 375.373 225.390,375.430 227.595,375.499 224.900 C 375.568 222.205,375.568 217.795,375.499 215.100 C 375.430 212.405,375.373 214.610,375.373 220.000 M278.101 213.000 C 278.105 213.880,278.187 214.193,278.283 213.695 C 278.379 213.198,278.375 212.478,278.275 212.095 C 278.175 211.713,278.096 212.120,278.101 213.000 M278.564 222.200 C 278.563 225.940,278.623 227.524,278.697 225.720 C 278.771 223.915,278.772 220.855,278.698 218.920 C 278.625 216.984,278.564 218.460,278.564 222.200 M24.509 228.000 C 24.509 228.990,24.587 229.395,24.682 228.900 C 24.778 228.405,24.778 227.595,24.682 227.100 C 24.587 226.605,24.509 227.010,24.509 228.000 M278.101 231.400 C 278.105 232.280,278.187 232.593,278.283 232.095 C 278.379 231.598,278.375 230.878,278.275 230.495 C 278.175 230.113,278.096 230.520,278.101 231.400 M374.928 233.200 C 374.928 234.630,375.001 235.215,375.089 234.500 C 375.178 233.785,375.178 232.615,375.089 231.900 C 375.001 231.185,374.928 231.770,374.928 233.200 M24.893 233.600 C 24.893 234.370,24.975 234.685,25.076 234.300 C 25.176 233.915,25.176 233.285,25.076 232.900 C 24.975 232.515,24.893 232.830,24.893 233.600 M277.693 234.800 C 277.693 235.570,277.775 235.885,277.876 235.500 C 277.976 235.115,277.976 234.485,277.876 234.100 C 277.775 233.715,277.693 234.030,277.693 234.800 M374.501 237.800 C 374.505 238.680,374.587 238.993,374.683 238.495 C 374.779 237.998,374.775 237.278,374.675 236.895 C 374.575 236.513,374.496 236.920,374.501 237.800 M374.109 241.600 C 374.109 242.590,374.187 242.995,374.282 242.500 C 374.378 242.005,374.378 241.195,374.282 240.700 C 374.187 240.205,374.109 240.610,374.109 241.600 M275.850 243.250 C 275.709 243.953,275.669 244.602,275.759 244.692 C 275.850 244.783,276.048 244.291,276.200 243.600 C 276.352 242.909,276.393 242.259,276.291 242.158 C 276.189 242.056,275.991 242.547,275.850 243.250 M26.101 244.600 C 26.105 245.480,26.187 245.793,26.283 245.295 C 26.379 244.798,26.375 244.078,26.275 243.695 C 26.175 243.313,26.096 243.720,26.101 244.600 M373.693 244.800 C 373.693 245.570,373.775 245.885,373.876 245.500 C 373.976 245.115,373.976 244.485,373.876 244.100 C 373.775 243.715,373.693 244.030,373.693 244.800 M274.291 248.491 C 273.702 250.286,273.288 251.821,273.369 251.903 C 273.451 251.984,274.005 250.588,274.600 248.800 C 275.195 247.012,275.610 245.477,275.522 245.388 C 275.433 245.300,274.879 246.696,274.291 248.491 M373.046 248.646 C 372.900 249.893,372.859 250.993,372.957 251.090 C 373.054 251.188,373.261 250.254,373.415 249.015 C 373.570 247.777,373.610 246.677,373.505 246.571 C 373.399 246.466,373.193 247.399,373.046 248.646 M26.893 250.400 C 26.893 251.170,26.975 251.485,27.076 251.100 C 27.176 250.715,27.176 250.085,27.076 249.700 C 26.975 249.315,26.893 249.630,26.893 250.400 M27.668 255.200 C 27.688 256.239,28.318 257.946,28.332 257.000 C 28.338 256.560,28.189 255.840,28.000 255.400 C 27.789 254.910,27.661 254.832,27.668 255.200 M270.083 259.013 C 269.382 260.436,268.893 261.600,268.998 261.600 C 269.266 261.600,271.685 256.751,271.506 256.572 C 271.425 256.492,270.785 257.590,270.083 259.013 M28.644 260.200 C 28.973 261.671,29.202 261.990,29.194 260.967 C 29.191 260.545,29.005 259.930,28.782 259.600 C 28.485 259.162,28.448 259.324,28.644 260.200 M370.622 261.422 C 370.472 262.225,370.428 262.962,370.526 263.060 C 370.624 263.157,370.827 262.581,370.978 261.778 C 371.128 260.975,371.172 260.238,371.074 260.140 C 370.976 260.043,370.773 260.619,370.622 261.422 M187.882 264.211 C 187.292 265.415,186.894 266.400,186.998 266.400 C 187.267 266.400,189.284 262.351,189.105 262.171 C 189.023 262.089,188.473 263.007,187.882 264.211 M369.050 268.050 C 368.909 268.753,368.869 269.402,368.959 269.492 C 369.050 269.583,369.248 269.091,369.400 268.400 C 369.552 267.709,369.593 267.059,369.491 266.958 C 369.389 266.856,369.191 267.347,369.050 268.050 M30.828 269.476 C 30.918 270.515,31.544 271.396,31.572 270.524 C 31.587 270.042,31.420 269.536,31.200 269.400 C 30.980 269.264,30.813 269.298,30.828 269.476 M32.456 274.800 C 32.456 275.130,32.611 275.760,32.800 276.200 C 33.017 276.704,33.144 276.778,33.144 276.400 C 33.144 276.070,32.989 275.440,32.800 275.000 C 32.583 274.496,32.456 274.422,32.456 274.800 M366.629 276.629 C 366.481 277.215,366.438 277.772,366.532 277.866 C 366.627 277.960,366.824 277.558,366.971 276.971 C 367.119 276.385,367.162 275.828,367.068 275.734 C 366.973 275.640,366.776 276.042,366.629 276.629 M254.992 280.100 L 251.400 283.800 255.100 280.208 C 257.135 278.233,258.800 276.568,258.800 276.508 C 258.800 276.218,258.328 276.664,254.992 280.100 M177.375 280.100 L 176.200 281.400 177.500 280.225 C 178.712 279.130,178.984 278.800,178.675 278.800 C 178.606 278.800,178.021 279.385,177.375 280.100 M364.447 283.247 C 363.984 284.618,363.674 285.808,363.758 285.892 C 363.843 285.976,364.290 284.923,364.753 283.553 C 365.216 282.182,365.526 280.992,365.442 280.908 C 365.357 280.824,364.910 281.877,364.447 283.247 M34.800 282.118 C 34.800 282.717,38.568 292.729,39.272 294.000 C 40.203 295.681,40.112 295.403,37.307 288.000 C 35.239 282.542,34.800 281.513,34.800 282.118 M173.188 284.700 L 170.600 287.400 173.300 284.812 C 175.808 282.407,176.183 282.000,175.888 282.000 C 175.827 282.000,174.612 283.215,173.188 284.700 M168.186 288.928 C 167.079 289.848,165.549 291.107,164.786 291.726 C 163.722 292.590,163.854 292.544,165.354 291.526 C 167.243 290.244,170.807 287.220,170.400 287.245 C 170.290 287.252,169.294 288.009,168.186 288.928 M239.100 292.229 C 237.605 293.040,237.696 293.378,239.200 292.600 C 239.860 292.259,240.400 291.894,240.400 291.790 C 240.400 291.532,240.357 291.547,239.100 292.229 M234.400 294.800 C 232.750 295.658,231.539 296.369,231.710 296.380 C 232.135 296.407,237.600 293.638,237.600 293.395 C 237.600 293.125,237.732 293.067,234.400 294.800 M40.034 295.800 C 40.034 296.020,40.378 296.830,40.800 297.600 C 41.222 298.370,41.566 298.820,41.566 298.600 C 41.566 298.380,41.222 297.570,40.800 296.800 C 40.378 296.030,40.034 295.580,40.034 295.800 M155.200 297.400 C 154.210 297.930,153.542 298.372,153.716 298.382 C 154.141 298.406,157.200 296.834,157.200 296.592 C 157.200 296.327,157.217 296.320,155.200 297.400 M226.600 298.214 C 225.600 298.696,225.566 298.751,226.400 298.548 C 227.533 298.271,228.807 297.621,228.200 297.630 C 227.980 297.633,227.260 297.896,226.600 298.214 M222.800 299.400 C 222.030 299.697,221.670 299.939,222.000 299.939 C 222.330 299.939,223.230 299.697,224.000 299.400 C 224.770 299.103,225.130 298.861,224.800 298.861 C 224.470 298.861,223.570 299.103,222.800 299.400 M148.888 300.099 C 147.726 300.545,146.847 300.981,146.935 301.069 C 147.121 301.255,151.600 299.625,151.600 299.371 C 151.600 299.108,151.174 299.223,148.888 300.099 M42.400 301.072 C 42.400 301.569,43.591 304.000,43.835 304.000 C 44.023 304.000,42.900 301.167,42.587 300.854 C 42.484 300.751,42.400 300.849,42.400 301.072 M209.700 302.276 C 210.085 302.376,210.715 302.376,211.100 302.276 C 211.485 302.175,211.170 302.093,210.400 302.093 C 209.630 302.093,209.315 302.175,209.700 302.276 M205.705 302.687 C 206.314 302.779,207.214 302.777,207.705 302.682 C 208.197 302.587,207.700 302.511,206.600 302.514 C 205.500 302.517,205.097 302.595,205.705 302.687 M200.505 303.087 C 201.114 303.179,202.014 303.177,202.505 303.082 C 202.997 302.987,202.500 302.911,201.400 302.914 C 200.300 302.917,199.897 302.995,200.505 303.087 M121.302 304.400 C 121.431 304.877,122.238 305.005,125.232 305.026 L 129.000 305.052 125.413 304.909 C 123.219 304.822,121.693 304.579,121.483 304.283 C 121.238 303.940,121.186 303.973,121.302 304.400 M130.705 304.683 C 131.202 304.779,131.922 304.775,132.305 304.675 C 132.687 304.575,132.280 304.496,131.400 304.501 C 130.520 304.505,130.207 304.587,130.705 304.683 M328.163 346.300 C 326.879 347.785,322.762 352.161,319.014 356.024 L 312.200 363.047 319.405 355.824 C 325.950 349.262,331.176 343.600,330.688 343.600 C 330.584 343.600,329.447 344.815,328.163 346.300 M74.298 349.400 C 75.863 351.160,79.265 354.670,81.858 357.200 C 85.476 360.731,85.048 360.219,80.017 355.000 C 71.505 346.169,70.885 345.562,74.298 349.400 M88.400 363.400 C 89.146 364.170,89.847 364.800,89.957 364.800 C 90.067 364.800,89.546 364.170,88.800 363.400 C 88.054 362.630,87.353 362.000,87.243 362.000 C 87.133 362.000,87.654 362.630,88.400 363.400 M310.175 364.500 L 309.000 365.800 310.300 364.625 C 311.015 363.979,311.600 363.394,311.600 363.325 C 311.600 363.016,311.270 363.288,310.175 364.500 M90.400 364.925 C 90.400 364.994,90.985 365.579,91.700 366.225 L 93.000 367.400 91.825 366.100 C 90.730 364.888,90.400 364.616,90.400 364.925 M131.200 392.000 C 131.970 392.422,132.780 392.766,133.000 392.766 C 133.220 392.766,132.770 392.422,132.000 392.000 C 131.230 391.578,130.420 391.234,130.200 391.234 C 129.980 391.234,130.430 391.578,131.200 392.000 M265.200 393.400 C 264.650 393.714,264.380 393.972,264.600 393.972 C 264.820 393.972,265.450 393.714,266.000 393.400 C 266.550 393.086,266.820 392.828,266.600 392.828 C 266.380 392.828,265.750 393.086,265.200 393.400 M153.200 400.600 C 153.970 400.897,154.960 401.141,155.400 401.143 C 155.840 401.145,155.390 400.891,154.400 400.579 C 152.139 399.867,151.333 399.881,153.200 400.600 M242.200 401.600 C 241.696 401.817,241.622 401.944,242.000 401.944 C 242.330 401.944,242.960 401.789,243.400 401.600 C 243.904 401.383,243.978 401.256,243.600 401.256 C 243.270 401.256,242.640 401.411,242.200 401.600 M161.400 402.827 C 162.940 403.242,164.470 403.570,164.800 403.555 C 165.130 403.540,164.140 403.188,162.600 402.773 C 161.060 402.358,159.530 402.030,159.200 402.045 C 158.870 402.060,159.860 402.412,161.400 402.827 M235.600 403.200 C 234.808 403.454,234.767 403.520,235.400 403.520 C 235.840 403.520,236.650 403.376,237.200 403.200 C 237.992 402.946,238.033 402.880,237.400 402.880 C 236.960 402.880,236.150 403.024,235.600 403.200 M166.400 404.000 C 166.950 404.176,167.760 404.320,168.200 404.320 C 168.833 404.320,168.792 404.254,168.000 404.000 C 167.450 403.824,166.640 403.680,166.200 403.680 C 165.567 403.680,165.608 403.746,166.400 404.000 M227.800 404.800 C 226.722 405.074,226.702 405.106,227.600 405.113 C 228.150 405.117,229.050 404.976,229.600 404.800 C 230.944 404.369,229.492 404.369,227.800 404.800 M172.600 405.200 C 173.260 405.368,174.340 405.506,175.000 405.507 C 176.009 405.508,175.945 405.455,174.600 405.177 C 172.574 404.758,170.937 404.777,172.600 405.200 M177.400 405.985 C 178.622 406.311,181.870 406.520,181.567 406.253 C 181.475 406.172,180.230 406.007,178.800 405.885 C 177.162 405.746,176.644 405.782,177.400 405.985 M219.700 406.276 C 220.085 406.376,220.715 406.376,221.100 406.276 C 221.485 406.175,221.170 406.093,220.400 406.093 C 219.630 406.093,219.315 406.175,219.700 406.276 M183.105 406.683 C 183.602 406.779,184.322 406.775,184.705 406.675 C 185.087 406.575,184.680 406.496,183.800 406.501 C 182.920 406.505,182.607 406.587,183.105 406.683 M212.600 406.800 L 209.800 407.059 212.200 407.094 C 213.520 407.114,215.500 406.990,216.600 406.818 C 219.205 406.413,216.906 406.402,212.600 406.800 M186.900 407.091 C 187.725 407.178,189.075 407.178,189.900 407.091 C 190.725 407.005,190.050 406.934,188.400 406.934 C 186.750 406.934,186.075 407.005,186.900 407.091 M196.522 407.499 C 198.899 407.570,202.679 407.569,204.922 407.498 C 207.165 407.427,205.220 407.369,200.600 407.369 C 195.980 407.370,194.145 407.428,196.522 407.499 " stroke="none" fill="#b38271" fill-rule="evenodd"></path><path id="path3" d="M184.800 38.622 C 181.830 38.904,179.055 39.149,178.633 39.167 C 178.212 39.185,177.965 39.299,178.086 39.420 C 178.207 39.540,182.872 39.339,188.453 38.973 C 194.743 38.559,200.500 38.399,203.600 38.551 C 213.479 39.035,220.490 39.593,224.208 40.191 C 227.672 40.749,230.377 40.954,229.400 40.586 C 224.064 38.576,197.567 37.408,184.800 38.622 M172.695 40.035 C 172.307 40.261,171.092 40.466,169.995 40.491 C 168.898 40.516,168.000 40.686,168.000 40.868 C 168.000 41.051,167.685 41.201,167.300 41.202 C 165.896 41.205,154.464 44.046,149.400 45.651 C 146.540 46.557,144.020 47.335,143.800 47.379 C 143.580 47.423,142.770 47.726,142.000 48.053 C 141.230 48.380,138.350 49.532,135.600 50.614 C 95.997 66.193,58.229 102.812,41.525 141.824 C 41.154 142.691,40.210 144.867,39.427 146.660 C 37.974 149.990,34.581 159.158,33.604 162.400 C 33.305 163.390,32.912 164.371,32.730 164.580 C 32.549 164.789,32.400 165.464,32.400 166.080 C 32.400 166.696,32.220 167.200,32.000 167.200 C 31.780 167.200,31.600 167.830,31.600 168.600 C 31.600 169.370,31.420 170.000,31.200 170.000 C 30.980 170.000,30.800 170.709,30.800 171.576 C 30.800 172.443,30.620 173.264,30.400 173.400 C 30.180 173.536,30.000 174.256,30.000 175.000 C 30.000 175.744,29.839 176.452,29.642 176.574 C 29.445 176.695,29.185 177.471,29.063 178.297 C 28.941 179.124,28.655 180.790,28.429 182.000 C 28.203 183.210,27.902 185.100,27.760 186.200 C 27.618 187.300,27.336 188.519,27.133 188.908 C 26.929 189.298,26.849 189.755,26.954 189.925 C 27.058 190.094,26.887 192.026,26.572 194.217 C 24.949 205.517,24.294 222.634,25.153 231.295 C 25.387 233.657,25.494 235.817,25.390 236.095 C 25.286 236.373,25.471 237.770,25.801 239.200 L 26.401 241.800 26.204 238.800 C 25.067 221.521,25.050 217.794,26.038 203.800 C 26.652 195.092,29.459 177.728,30.837 174.102 C 31.048 173.548,31.401 172.264,31.621 171.247 C 32.773 165.942,38.304 150.037,41.097 144.000 C 44.028 137.663,48.808 128.333,50.039 126.543 C 50.678 125.615,51.200 124.730,51.200 124.576 C 51.200 124.423,51.920 123.242,52.800 121.953 C 53.680 120.664,54.400 119.492,54.400 119.349 C 54.400 119.083,61.561 108.762,61.997 108.400 C 62.129 108.290,63.087 107.085,64.125 105.723 C 65.163 104.360,66.234 103.009,66.506 102.720 C 66.778 102.431,67.894 101.116,68.987 99.797 C 74.447 93.210,83.029 84.626,89.578 79.200 C 90.773 78.210,92.482 76.755,93.375 75.967 C 94.269 75.179,95.877 73.919,96.948 73.167 C 98.019 72.415,99.385 71.440,99.982 71.000 C 103.588 68.344,112.116 62.888,116.400 60.495 C 123.871 56.323,126.922 54.853,138.200 49.989 C 144.213 47.396,162.451 42.260,169.511 41.173 C 171.210 40.911,173.770 40.465,175.200 40.181 L 177.800 39.665 175.600 39.645 C 174.390 39.634,173.083 39.809,172.695 40.035 M232.200 41.443 C 247.926 45.079,251.679 46.203,263.800 50.905 C 268.772 52.834,279.368 58.014,283.909 60.737 C 286.170 62.091,288.112 63.200,288.226 63.200 C 288.339 63.200,288.920 63.538,289.516 63.951 C 290.112 64.364,292.850 66.198,295.600 68.027 C 298.350 69.856,300.805 71.543,301.055 71.776 C 301.836 72.503,302.946 73.373,304.400 74.400 C 306.074 75.582,306.247 75.724,311.600 80.283 C 324.401 91.186,338.621 107.805,346.782 121.400 C 347.971 123.380,349.649 126.149,350.511 127.553 C 355.428 135.559,361.951 150.305,365.627 161.728 C 366.535 164.548,367.369 166.765,367.480 166.653 C 367.775 166.358,365.089 158.406,362.129 150.813 C 341.659 98.305,295.678 56.856,243.200 43.606 C 237.121 42.071,231.188 40.789,230.419 40.844 C 230.078 40.869,230.880 41.138,232.200 41.443 M124.100 139.491 C 124.925 139.578,126.275 139.578,127.100 139.491 C 127.925 139.405,127.250 139.334,125.600 139.334 C 123.950 139.334,123.275 139.405,124.100 139.491 M134.324 139.499 C 137.473 139.567,142.513 139.567,145.524 139.499 C 148.536 139.431,145.960 139.376,139.800 139.376 C 133.640 139.376,131.176 139.432,134.324 139.499 M154.515 139.496 C 155.788 139.576,157.768 139.575,158.915 139.494 C 160.062 139.414,159.020 139.349,156.600 139.350 C 154.180 139.351,153.242 139.416,154.515 139.496 M168.900 139.500 C 173.245 139.564,180.355 139.564,184.700 139.500 C 189.045 139.435,185.490 139.382,176.800 139.382 C 168.110 139.382,164.555 139.435,168.900 139.500 M200.033 139.353 C 200.125 139.436,202.180 139.603,204.600 139.722 C 207.618 139.870,208.372 139.833,207.000 139.604 C 204.964 139.264,199.730 139.075,200.033 139.353 M198.996 221.400 C 198.996 266.280,199.043 284.581,199.100 262.068 C 199.157 239.556,199.157 202.836,199.100 180.468 C 199.043 158.101,198.996 176.520,198.996 221.400 M209.233 140.150 C 209.325 140.232,210.480 140.400,211.800 140.523 C 213.378 140.670,213.789 140.635,213.000 140.420 C 211.766 140.085,208.936 139.882,209.233 140.150 M120.996 222.600 C 120.996 267.920,121.043 286.401,121.100 263.668 C 121.157 240.936,121.157 203.856,121.100 181.268 C 121.043 158.681,120.996 177.280,120.996 222.600 M217.600 141.673 C 218.370 141.924,220.890 142.714,223.200 143.430 C 225.510 144.146,227.760 144.850,228.200 144.994 C 228.761 145.177,228.701 145.069,228.000 144.632 C 226.741 143.847,219.927 141.707,217.800 141.428 L 216.200 141.218 217.600 141.673 M193.843 142.233 C 193.469 143.207,193.555 161.925,193.935 162.160 C 194.119 162.273,194.301 157.694,194.339 151.983 C 194.406 141.905,194.355 140.898,193.843 142.233 M237.152 149.335 C 250.645 156.833,261.533 168.070,269.191 182.400 C 271.528 186.773,272.219 187.234,270.091 183.000 C 263.041 168.973,249.251 154.873,236.110 148.255 C 231.589 145.979,232.141 146.551,237.152 149.335 M367.833 168.600 C 367.957 169.480,368.492 171.730,369.022 173.600 C 370.078 177.323,371.658 185.070,372.450 190.400 C 372.728 192.270,373.022 193.492,373.104 193.115 C 373.290 192.257,371.919 184.114,370.599 178.243 C 369.405 172.934,367.513 166.338,367.833 168.600 M193.668 171.580 C 193.630 173.659,193.743 175.189,193.918 174.980 C 194.092 174.771,194.123 173.070,193.985 171.200 L 193.735 167.800 193.668 171.580 M193.727 183.400 L 193.742 191.400 193.971 185.400 C 194.097 182.100,194.090 178.500,193.956 177.400 C 193.822 176.300,193.719 179.000,193.727 183.400 M272.028 188.200 C 272.028 188.420,272.286 189.050,272.600 189.600 C 272.914 190.150,273.172 190.420,273.172 190.200 C 273.172 189.980,272.914 189.350,272.600 188.800 C 272.286 188.250,272.028 187.980,272.028 188.200 M193.772 201.000 C 193.772 206.060,193.829 208.075,193.899 205.477 C 193.969 202.880,193.968 198.740,193.898 196.277 C 193.828 193.815,193.771 195.940,193.772 201.000 M273.861 192.800 C 274.317 194.602,275.252 196.803,274.984 195.444 C 274.859 194.808,274.498 193.728,274.182 193.044 C 273.751 192.108,273.671 192.048,273.861 192.800 M373.247 194.494 C 373.221 194.876,373.482 198.116,373.826 201.694 C 374.170 205.272,374.592 212.340,374.763 217.400 C 375.028 225.229,375.084 225.787,375.137 221.144 C 375.229 213.125,373.570 189.735,373.247 194.494 M275.796 199.100 C 275.951 199.705,276.498 202.000,277.011 204.200 C 277.524 206.400,277.957 207.853,277.972 207.428 C 278.008 206.431,275.996 198.000,275.722 198.000 C 275.607 198.000,275.640 198.495,275.796 199.100 M278.182 210.400 C 279.091 217.288,279.111 225.773,278.238 234.400 C 278.057 236.193,278.082 236.341,278.377 235.200 C 278.963 232.928,279.631 222.049,279.384 218.800 C 279.008 213.845,278.378 208.644,278.127 208.415 C 277.998 208.297,278.022 209.190,278.182 210.400 M193.671 220.504 C 193.674 226.352,193.840 230.916,194.062 231.239 C 194.310 231.601,194.372 228.062,194.237 221.247 C 194.122 215.443,193.946 210.613,193.846 210.513 C 193.747 210.413,193.668 214.909,193.671 220.504 M374.465 229.000 C 374.417 230.100,374.123 233.790,373.813 237.200 C 373.504 240.610,373.155 244.480,373.039 245.800 L 372.828 248.200 373.204 246.200 C 373.923 242.372,374.842 232.165,374.699 229.591 C 374.567 227.234,374.546 227.181,374.465 229.000 M193.618 243.284 L 193.578 250.578 192.022 255.231 C 184.658 277.257,167.413 294.494,145.400 301.834 C 142.540 302.788,140.512 303.575,140.894 303.584 C 141.276 303.593,143.526 302.952,145.894 302.161 C 167.941 294.790,185.439 276.974,192.800 254.400 C 193.931 250.934,194.850 236.725,193.979 236.187 C 193.803 236.078,193.641 239.272,193.618 243.284 M277.233 239.450 C 276.778 241.791,274.704 249.187,273.769 251.800 C 273.568 252.361,273.611 252.481,273.912 252.200 C 274.835 251.342,278.292 238.277,277.905 237.114 C 277.829 236.886,277.526 237.937,277.233 239.450 M26.473 243.400 C 26.458 244.060,26.595 245.320,26.777 246.200 C 27.213 248.306,27.250 246.414,26.820 244.000 C 26.580 242.650,26.493 242.500,26.473 243.400 M27.293 249.200 C 27.295 250.965,27.891 253.588,27.930 252.000 C 27.943 251.450,27.805 250.280,27.623 249.400 L 27.292 247.800 27.293 249.200 M371.663 253.600 C 371.148 256.570,370.108 261.426,369.352 264.391 C 368.595 267.356,368.035 270.056,368.107 270.391 C 368.396 271.745,372.949 250.632,372.716 249.016 C 372.651 248.567,372.177 250.630,371.663 253.600 M27.994 253.833 C 27.980 254.764,30.172 264.483,30.306 264.082 C 30.389 263.832,29.970 261.417,29.375 258.714 C 28.379 254.190,28.009 252.883,27.994 253.833 M272.065 255.817 C 271.395 257.288,271.523 257.602,272.247 256.265 C 272.586 255.640,272.788 255.054,272.696 254.963 C 272.605 254.871,272.321 255.256,272.065 255.817 M270.586 259.116 C 261.665 276.108,247.750 289.620,232.183 296.408 C 230.533 297.127,229.264 297.798,229.364 297.898 C 229.464 297.998,231.583 297.085,234.073 295.870 C 247.091 289.514,257.558 280.423,265.480 268.594 C 268.068 264.729,271.800 258.067,271.529 257.796 C 271.439 257.706,271.014 258.299,270.586 259.116 M30.564 265.800 C 31.296 268.979,32.514 273.219,32.655 273.078 C 32.842 272.891,30.812 265.091,30.501 264.800 C 30.384 264.690,30.412 265.140,30.564 265.800 M366.238 276.105 C 364.409 282.057,363.142 285.581,360.024 293.383 C 357.262 300.294,357.068 301.545,359.692 295.517 C 362.499 289.068,368.367 271.834,367.911 271.378 C 367.818 271.285,367.066 273.412,366.238 276.105 M33.052 274.800 C 33.948 279.737,40.018 295.309,44.982 305.400 C 56.591 329.002,71.224 347.811,92.600 366.606 C 101.384 374.329,115.671 383.822,127.200 389.596 C 135.282 393.643,150.079 399.655,150.622 399.112 C 150.720 399.014,148.415 398.067,145.500 397.007 C 142.585 395.948,139.480 394.759,138.600 394.366 C 137.720 393.973,135.830 393.173,134.400 392.588 C 132.970 392.003,130.540 390.838,129.000 390.000 C 127.460 389.161,124.670 387.674,122.800 386.696 C 115.047 382.641,104.960 376.044,98.800 371.001 C 97.150 369.650,95.423 368.287,94.963 367.972 C 89.808 364.450,73.083 347.360,66.805 339.200 C 66.044 338.210,65.321 337.310,65.199 337.200 C 64.557 336.622,57.830 327.030,55.381 323.200 C 51.020 316.382,44.763 304.577,41.599 297.200 C 40.892 295.550,40.068 293.660,39.770 293.000 C 38.910 291.100,35.421 281.297,34.431 278.000 C 33.304 274.246,32.696 272.835,33.052 274.800 M226.000 298.849 C 220.304 300.897,211.727 302.551,203.600 303.167 C 199.454 303.482,199.439 303.487,202.417 303.543 C 206.099 303.613,213.870 302.636,218.200 301.560 C 221.787 300.669,228.800 298.424,228.800 298.167 C 228.800 297.897,228.328 298.013,226.000 298.849 M353.082 308.424 C 347.149 319.984,339.666 331.479,332.008 340.800 C 320.924 354.289,307.682 366.807,295.570 375.243 C 287.316 380.993,285.242 382.356,282.344 383.938 C 280.725 384.821,278.230 386.194,276.800 386.989 C 259.841 396.410,239.438 403.020,219.600 405.520 C 216.630 405.894,214.759 406.254,215.443 406.321 C 218.733 406.642,234.778 403.535,245.000 400.598 C 291.307 387.292,335.012 349.179,355.962 303.833 C 358.755 297.788,357.579 299.662,353.082 308.424 M136.200 304.237 L 133.800 304.771 136.165 304.549 C 138.546 304.325,141.163 303.620,139.400 303.677 C 138.960 303.691,137.520 303.943,136.200 304.237 M131.505 305.083 C 132.002 305.179,132.722 305.175,133.105 305.075 C 133.487 304.975,133.080 304.896,132.200 304.901 C 131.320 304.905,131.007 304.987,131.505 305.083 M124.300 305.495 C 125.455 305.576,127.345 305.576,128.500 305.495 C 129.655 305.414,128.710 305.348,126.400 305.348 C 124.090 305.348,123.145 305.414,124.300 305.495 M151.600 399.561 C 152.548 400.092,163.165 402.878,163.639 402.720 C 163.874 402.642,162.566 402.181,160.733 401.695 C 158.900 401.210,156.140 400.455,154.600 400.018 C 151.602 399.167,150.635 399.020,151.600 399.561 M166.056 403.389 C 166.916 404.250,186.891 406.832,191.800 406.718 L 195.000 406.643 192.200 406.522 C 187.257 406.308,177.551 405.168,172.200 404.174 C 166.966 403.201,165.707 403.041,166.056 403.389 M208.900 406.691 C 209.725 406.778,211.075 406.778,211.900 406.691 C 212.725 406.605,212.050 406.534,210.400 406.534 C 208.750 406.534,208.075 406.605,208.900 406.691 M198.100 407.097 C 199.805 407.172,202.595 407.172,204.300 407.097 C 206.005 407.022,204.610 406.961,201.200 406.961 C 197.790 406.961,196.395 407.022,198.100 407.097 " stroke="none" fill="#904a34" fill-rule="evenodd"></path><path id="path4" d="M187.905 38.283 C 188.402 38.379,189.122 38.375,189.505 38.275 C 189.887 38.175,189.480 38.096,188.600 38.101 C 187.720 38.105,187.407 38.187,187.905 38.283 M210.105 38.287 C 210.714 38.379,211.614 38.377,212.105 38.282 C 212.597 38.187,212.100 38.111,211.000 38.114 C 209.900 38.117,209.497 38.195,210.105 38.287 M321.800 89.200 C 323.550 90.960,325.071 92.400,325.181 92.400 C 325.291 92.400,323.950 90.960,322.200 89.200 C 320.450 87.440,318.929 86.000,318.819 86.000 C 318.709 86.000,320.050 87.440,321.800 89.200 M72.975 94.100 L 71.800 95.400 73.100 94.225 C 74.312 93.130,74.584 92.800,74.275 92.800 C 74.206 92.800,73.621 93.385,72.975 94.100 M139.530 139.900 C 149.062 139.960,164.542 139.960,173.930 139.900 C 183.319 139.840,175.520 139.791,156.600 139.791 C 137.680 139.791,129.999 139.840,139.530 139.900 M202.105 139.887 C 202.714 139.979,203.614 139.977,204.105 139.882 C 204.597 139.787,204.100 139.711,203.000 139.714 C 201.900 139.717,201.497 139.795,202.105 139.887 M199.396 221.400 C 199.396 266.280,199.443 284.581,199.500 262.068 C 199.557 239.556,199.557 202.836,199.500 180.468 C 199.443 158.101,199.396 176.520,199.396 221.400 M121.353 147.000 C 121.353 149.640,121.418 150.668,121.497 149.284 C 121.575 147.901,121.574 145.741,121.495 144.484 C 121.416 143.228,121.352 144.360,121.353 147.000 M254.200 162.400 C 255.506 163.720,256.665 164.800,256.775 164.800 C 256.885 164.800,255.906 163.720,254.600 162.400 C 253.294 161.080,252.135 160.000,252.025 160.000 C 251.915 160.000,252.894 161.080,254.200 162.400 M121.331 163.400 C 121.333 164.940,121.405 165.521,121.492 164.691 C 121.579 163.861,121.577 162.601,121.489 161.891 C 121.400 161.181,121.329 161.860,121.331 163.400 M121.337 169.400 C 121.339 171.160,121.409 171.830,121.493 170.889 C 121.578 169.949,121.577 168.509,121.491 167.689 C 121.405 166.870,121.336 167.640,121.337 169.400 M121.395 239.000 C 121.395 274.860,121.442 289.471,121.500 271.468 C 121.558 253.466,121.558 224.126,121.500 206.268 C 121.442 188.411,121.395 203.140,121.395 239.000 M26.253 193.636 C 26.114 194.331,26.022 195.463,26.049 196.150 C 26.078 196.894,26.238 196.440,26.443 195.028 C 26.811 192.504,26.676 191.518,26.253 193.636 M25.320 203.200 C 25.320 204.410,25.395 204.905,25.487 204.300 C 25.578 203.695,25.578 202.705,25.487 202.100 C 25.395 201.495,25.320 201.990,25.320 203.200 M374.493 204.000 C 374.493 204.770,374.575 205.085,374.676 204.700 C 374.776 204.315,374.776 203.685,374.676 203.300 C 374.575 202.915,374.493 203.230,374.493 204.000 M24.901 209.000 C 24.905 209.880,24.987 210.193,25.083 209.695 C 25.179 209.198,25.175 208.478,25.075 208.095 C 24.975 207.713,24.896 208.120,24.901 209.000 M374.909 211.200 C 374.909 212.190,374.987 212.595,375.082 212.100 C 375.178 211.605,375.178 210.795,375.082 210.300 C 374.987 209.805,374.909 210.210,374.909 211.200 M24.528 217.200 C 24.528 218.630,24.601 219.215,24.689 218.500 C 24.778 217.785,24.778 216.615,24.689 215.900 C 24.601 215.185,24.528 215.770,24.528 217.200 M278.893 222.000 C 278.893 222.770,278.975 223.085,279.076 222.700 C 279.176 222.315,279.176 221.685,279.076 221.300 C 278.975 220.915,278.893 221.230,278.893 222.000 M24.501 225.000 C 24.505 225.880,24.587 226.193,24.683 225.695 C 24.779 225.198,24.775 224.478,24.675 224.095 C 24.575 223.713,24.496 224.120,24.501 225.000 M374.924 228.600 C 374.926 229.920,375.001 230.412,375.090 229.693 C 375.179 228.974,375.177 227.894,375.086 227.293 C 374.995 226.692,374.922 227.280,374.924 228.600 M24.909 230.800 C 24.909 231.790,24.987 232.195,25.082 231.700 C 25.178 231.205,25.178 230.395,25.082 229.900 C 24.987 229.405,24.909 229.810,24.909 230.800 M193.709 232.400 C 193.709 233.390,193.787 233.795,193.882 233.300 C 193.978 232.805,193.978 231.995,193.882 231.500 C 193.787 231.005,193.709 231.410,193.709 232.400 M28.406 258.033 C 28.409 258.565,28.589 259.270,28.806 259.600 C 29.082 260.022,29.123 259.785,28.942 258.800 C 28.625 257.075,28.398 256.749,28.406 258.033 M29.206 261.633 C 29.209 262.165,29.389 262.870,29.606 263.200 C 29.882 263.622,29.923 263.385,29.742 262.400 C 29.425 260.675,29.198 260.349,29.206 261.633 M30.006 265.033 C 30.009 265.455,30.195 266.070,30.418 266.400 C 30.715 266.838,30.752 266.676,30.556 265.800 C 30.227 264.329,29.998 264.010,30.006 265.033 M203.700 303.076 C 204.085 303.176,204.715 303.176,205.100 303.076 C 205.485 302.975,205.170 302.893,204.400 302.893 C 203.630 302.893,203.315 302.975,203.700 303.076 M69.200 343.325 C 69.200 343.394,69.785 343.979,70.500 344.625 L 71.800 345.800 70.625 344.500 C 69.530 343.288,69.200 343.016,69.200 343.325 M76.800 351.800 C 77.995 353.010,79.063 354.000,79.173 354.000 C 79.283 354.000,78.395 353.010,77.200 351.800 C 76.005 350.590,74.937 349.600,74.827 349.600 C 74.717 349.600,75.605 350.590,76.800 351.800 M323.775 350.900 L 322.600 352.200 323.900 351.025 C 324.615 350.379,325.200 349.794,325.200 349.725 C 325.200 349.416,324.870 349.688,323.775 350.900 M85.400 360.400 C 86.259 361.280,87.052 362.000,87.162 362.000 C 87.272 362.000,86.659 361.280,85.800 360.400 C 84.941 359.520,84.148 358.800,84.038 358.800 C 83.928 358.800,84.541 359.520,85.400 360.400 M312.778 361.900 L 311.400 363.400 312.900 362.022 C 314.296 360.738,314.584 360.400,314.278 360.400 C 314.212 360.400,313.537 361.075,312.778 361.900 M192.100 407.087 C 192.705 407.178,193.695 407.178,194.300 407.087 C 194.905 406.995,194.410 406.920,193.200 406.920 C 191.990 406.920,191.495 406.995,192.100 407.087 M207.905 407.083 C 208.402 407.179,209.122 407.175,209.505 407.075 C 209.887 406.975,209.480 406.896,208.600 406.901 C 207.720 406.905,207.407 406.987,207.905 407.083 " stroke="none" fill="#a4745c" fill-rule="evenodd"></path></g></svg>